<svg width="1512" height="982" viewBox="0 0 1512 982" fill="none" xmlns="http://www.w3.org/2000/svg">
<g clip-path="url(#clip0_20_2)">
<rect width="1512" height="982" fill="#00ADEF"/>
<path d="M1101.56 38.2775C1100.66 38.1044 1099.76 38.2896 1098.87 38.2957C1098.15 38.3006 1097.43 38.3054 1096.53 38.3115L1096.54 38.4907C961.642 41.0171 837.964 110.298 764.743 186.225C811.056 243.067 845.414 309.664 864.565 382.457C902.842 312.5 1002.41 233.17 1102.18 236.615C1251.99 237.213 1376.96 358.022 1377.97 507.802L1377.98 509.593C1378.1 659.737 1256.76 781.678 1106.42 782.697C955.909 783.716 833.1 663.43 831.186 513.298L831.173 511.506C830.44 403.293 793.169 303.927 731.277 224.794C644.408 113.401 508.476 42.2957 356.17 43.3276C95.6872 45.0925 -113.856 257.037 -112.812 517.006L-112.794 519.694C-111.377 649.403 -57.6586 766.575 28.309 850.919C114.277 935.263 270.851 1008.02 412.795 986.813L412.788 985.738C523.203 971.373 621.521 919.105 694.377 842.285C647.528 785.806 612.455 719.571 592.587 646.963C554.498 718.172 485.603 770.598 403.364 786.385L403.372 787.639C227.736 814.092 87.6957 666.151 85.7973 518.348C85.8281 443.455 116.045 375.345 165.225 325.919C214.226 276.494 282.012 245.755 357.358 245.245C508.409 244.221 631.561 361.998 632.583 512.852L632.584 513.031C632.588 513.569 632.592 514.285 632.596 514.823C633.694 623.93 671.869 724.186 735.197 803.487C822.231 912.729 957.076 982.408 1107.77 981.387C1368.43 979.621 1578.53 770.719 1576.77 510.217L1576.74 506.634C1575.17 247.744 1360.09 39.2134 1101.56 38.2775Z" fill="#2FC3FB"/>
</g>
<defs>
<clipPath id="clip0_20_2">
<rect width="1512" height="982" fill="white"/>
</clipPath>
</defs>
</svg>
