<svg width="100" height="100" viewBox="0 0 100 100" fill="none" xmlns="http://www.w3.org/2000/svg">
<g clip-path="url(#clip0_3_67)">
<path d="M49.771 52.5417L45.3058 48.2708H32.5V80.7292H73.5V52.5417H49.771ZM34.2083 79.0208V49.9792H44.6202L49.0853 54.25H71.7917V79.0208H34.2083Z" fill="white"/>
<path d="M39.7764 67.8129V59.368H42.9626C43.6154 59.368 44.163 59.4807 44.6055 59.7061C45.0508 59.9316 45.3869 60.2477 45.6137 60.6545C45.8432 61.0586 45.958 61.5301 45.958 62.0689C45.958 62.6104 45.8419 63.0805 45.6095 63.4791C45.38 63.875 45.0412 64.1815 44.5931 64.3986C44.145 64.6131 43.5946 64.7203 42.9419 64.7203H40.6726V63.4502H42.7345C43.1162 63.4502 43.4287 63.398 43.6721 63.2936C43.9155 63.1863 44.0952 63.031 44.2114 62.8276C44.3303 62.6214 44.3898 62.3685 44.3898 62.0689C44.3898 61.7693 44.3303 61.5136 44.2114 61.3019C44.0925 61.0875 43.9113 60.9253 43.6679 60.8154C43.4245 60.7026 43.1106 60.6463 42.7262 60.6463H41.3156V67.8129H39.7764ZM44.1658 63.9863L46.2692 67.8129H44.5516L42.4855 63.9863H44.1658Z" fill="white"/>
<path d="M47.3748 67.8129V59.368H52.9009V60.6504H48.914V62.9431H52.6147V64.2255H48.914V66.5305H52.9341V67.8129H47.3748Z" fill="white"/>
<path d="M54.4712 67.8129V59.368H57.6574C58.3102 59.368 58.8578 59.489 59.3003 59.7309C59.7456 59.9728 60.0817 60.3054 60.3085 60.7288C60.538 61.1494 60.6528 61.6277 60.6528 62.1637C60.6528 62.7053 60.538 63.1863 60.3085 63.6069C60.0789 64.0275 59.7401 64.3588 59.292 64.6007C58.844 64.8399 58.2922 64.9594 57.6367 64.9594H55.525V63.7018H57.4292C57.8109 63.7018 58.1235 63.6358 58.3669 63.5039C58.6102 63.3719 58.79 63.1905 58.9062 62.9596C59.0251 62.7286 59.0846 62.4634 59.0846 62.1637C59.0846 61.8641 59.0251 61.6002 58.9062 61.372C58.79 61.1439 58.6089 60.9666 58.3627 60.8401C58.1193 60.7109 57.8054 60.6463 57.4209 60.6463H56.0104V67.8129H54.4712Z" fill="white"/>
<path d="M69.5819 63.5904C69.5819 64.5004 69.4104 65.2797 69.0674 65.9285C68.7273 66.5745 68.2626 67.0693 67.6735 67.4129C67.0871 67.7565 66.4219 67.9283 65.6779 67.9283C64.9339 67.9283 64.2674 67.7565 63.6783 67.4129C63.0919 67.0665 62.6272 66.5703 62.2843 65.9243C61.9441 65.2756 61.774 64.4976 61.774 63.5904C61.774 62.6805 61.9441 61.9026 62.2843 61.2566C62.6272 60.6078 63.0919 60.1116 63.6783 59.768C64.2674 59.4244 64.9339 59.2526 65.6779 59.2526C66.4219 59.2526 67.0871 59.4244 67.6735 59.768C68.2626 60.1116 68.7273 60.6078 69.0674 61.2566C69.4104 61.9026 69.5819 62.6805 69.5819 63.5904ZM68.0344 63.5904C68.0344 62.9499 67.9335 62.4098 67.7316 61.9699C67.5324 61.5273 67.2558 61.1933 66.9018 60.9679C66.5478 60.7398 66.1398 60.6257 65.6779 60.6257C65.2161 60.6257 64.8081 60.7398 64.4541 60.9679C64.1 61.1933 63.8221 61.5273 63.6202 61.9699C63.421 62.4098 63.3215 62.9499 63.3215 63.5904C63.3215 64.231 63.421 64.7725 63.6202 65.2151C63.8221 65.6549 64.1 65.9889 64.4541 66.2171C64.8081 66.4425 65.2161 66.5552 65.6779 66.5552C66.1398 66.5552 66.5478 66.4425 66.9018 66.2171C67.2558 65.9889 67.5324 65.6549 67.7316 65.2151C67.9335 64.7725 68.0344 64.231 68.0344 63.5904Z" fill="white"/>
<path d="M68.375 74.75H48.7292V76.4583H68.375V74.75Z" fill="white"/>
<path d="M68.375 70.4792H57.2708V72.1875H68.375V70.4792Z" fill="white"/>
</g>
<g clip-path="url(#clip1_3_67)">
<path d="M59.02 15.555C58.995 15.55 58.97 15.555 58.945 15.555C58.925 15.555 58.905 15.555 58.88 15.555V15.56C55.12 15.605 51.66 17.515 49.605 19.62C50.885 21.215 51.83 23.08 52.35 25.115C53.43 23.17 56.22 20.975 59 21.09C63.175 21.135 66.635 24.53 66.635 28.71V28.76C66.61 32.95 63.205 36.33 59.015 36.33C54.82 36.33 51.42 32.95 51.395 28.76V28.71C51.395 25.69 50.375 22.91 48.665 20.69C46.265 17.565 42.49 15.555 38.245 15.555C30.985 15.555 25.105 21.43 25.085 28.685V28.76C25.1 32.38 26.575 35.66 28.955 38.03C31.335 40.4 35.685 42.46 39.645 41.895V41.865C42.725 41.485 45.475 40.045 47.52 37.915C46.225 36.33 45.26 34.475 44.72 32.445C43.645 34.425 41.715 35.875 39.42 36.3V36.335C34.52 37.04 30.645 32.885 30.62 28.76C30.635 26.67 31.49 24.775 32.87 23.405C34.245 22.035 36.14 21.19 38.24 21.19C42.45 21.19 45.86 24.5 45.86 28.71V28.715C45.86 28.73 45.86 28.75 45.86 28.765C45.87 31.81 46.915 34.615 48.665 36.84C51.07 39.905 54.815 41.875 59.015 41.875C66.28 41.875 72.175 36.085 72.175 28.815V28.715C72.18 21.49 66.225 15.63 59.02 15.555Z" fill="white"/>
<path d="M25.44 37.995C24.14 36.41 23.17 34.545 22.63 32.505C21.55 34.49 19.615 35.865 17.32 36.295C16.955 36.345 16.585 36.375 16.205 36.375C14.1 36.375 12.195 35.525 10.815 34.15C9.435 32.775 8.575 30.875 8.56 28.775C8.59 24.635 12.47 20.46 17.395 21.17C17.47 21.18 17.545 21.19 17.62 21.205C19.635 21.74 21.315 23.005 22.295 24.76C22.835 22.77 23.805 20.95 25.105 19.4C23 17.265 20.155 15.83 16.975 15.5V15.525V15.53C13.91 15.305 10.685 16.545 8.37 18.22C7.82 18.62 7.32 19.04 6.885 19.47C4.495 21.855 3.015 25.145 3 28.78V28.855C3 28.975 3 29.09 3.005 29.21V29.215C3.21 36.33 9.04 42.035 16.205 42.035C16.58 42.035 16.95 42.02 17.315 41.99V41.995C20.5 41.655 23.34 40.185 25.44 37.995Z" fill="white"/>
<path d="M85.7 15.595C79.45 15.595 74.39 20.68 74.39 26.965C74.39 27.2 74.4 27.44 74.415 27.67V50.8L75.47 51.765V33.525H75.495C75.56 33.33 75.745 33.19 75.97 33.19C76.195 33.19 76.38 33.33 76.445 33.525H76.465C76.465 33.53 76.47 33.535 76.47 33.535V53.06H76.52L77.575 52.02L79.35 49.895V48.89L78.485 48.12L78.965 46.97V46.105L78.34 45.815L78.295 44.185L78.965 43.56V42.22L78.1 41.595V40.5L79.78 39.49V36.65C81.505 37.715 83.53 38.33 85.7 38.33C91.94 38.33 97 33.235 97 26.96C97 20.68 91.935 15.595 85.7 15.595ZM85.7 33.665C82.015 33.665 79.03 30.67 79.03 26.965C79.03 23.26 82.015 20.25 85.7 20.25C89.38 20.25 92.36 23.255 92.36 26.96C92.36 30.665 89.38 33.665 85.7 33.665Z" fill="white"/>
</g>
<defs>
<clipPath id="clip0_3_67">
<rect width="41" height="41" fill="white" transform="translate(32.5 44)"/>
</clipPath>
<clipPath id="clip1_3_67">
<rect width="94" height="38" fill="white" transform="translate(3 15.5)"/>
</clipPath>
</defs>
</svg>
