<svg width="100" height="29" viewBox="0 0 100 29" fill="none" xmlns="http://www.w3.org/2000/svg">
<g clip-path="url(#clip0_3_15)">
<path d="M39.1748 2.13635C39.1573 2.13285 39.1399 2.13635 39.1224 2.13635C39.1084 2.13635 39.0944 2.13635 39.0769 2.13635V2.13985C36.4476 2.17132 34.028 3.50698 32.5909 4.97901C33.486 6.0944 34.1469 7.3986 34.5105 8.82167C35.2657 7.46153 37.2168 5.92657 39.1608 6.00699C42.0804 6.03846 44.5 8.41258 44.5 11.3357V11.3706C44.4825 14.3007 42.1014 16.6643 39.1713 16.6643C36.2378 16.6643 33.8601 14.3007 33.8427 11.3706V11.3357C33.8427 9.22377 33.1294 7.27972 31.9336 5.72727C30.2553 3.54194 27.6154 2.13635 24.6469 2.13635C19.5699 2.13635 15.458 6.24475 15.4441 11.3182V11.3706C15.4546 13.9021 16.486 16.1958 18.1504 17.8531C19.8147 19.5105 22.8566 20.951 25.6259 20.5559V20.535C27.7797 20.2692 29.7028 19.2622 31.1329 17.7727C30.2273 16.6643 29.5525 15.3671 29.1748 13.9475C28.4231 15.3322 27.0734 16.3461 25.4685 16.6434V16.6678C22.042 17.1608 19.3322 14.2552 19.3147 11.3706C19.3252 9.90909 19.9231 8.58391 20.8881 7.62587C21.8497 6.66783 23.1748 6.07692 24.6434 6.07692C27.5874 6.07692 29.972 8.3916 29.972 11.3357V11.3392C29.972 11.3496 29.972 11.3636 29.972 11.3741C29.979 13.5035 30.7098 15.465 31.9336 17.021C33.6154 19.1643 36.2343 20.542 39.1713 20.542C44.2518 20.542 48.3741 16.493 48.3741 11.4091V11.3392C48.3776 6.28671 44.2133 2.1888 39.1748 2.13635Z" fill="#00AEEF"/>
<path d="M15.6923 17.8287C14.7832 16.7203 14.1049 15.4161 13.7273 13.9895C12.972 15.3776 11.6189 16.3392 10.014 16.6399C9.75874 16.6748 9.5 16.6958 9.23427 16.6958C7.76224 16.6958 6.43007 16.1014 5.46504 15.1399C4.5 14.1783 3.8986 12.8496 3.88811 11.3811C3.90909 8.48601 6.62238 5.56643 10.0664 6.06294C10.1189 6.06993 10.1713 6.07692 10.2238 6.08741C11.6329 6.46154 12.8077 7.34615 13.493 8.57343C13.8706 7.18182 14.549 5.90909 15.458 4.82517C13.986 3.33217 11.9965 2.32867 9.77273 2.0979V2.11538V2.11888C7.62937 1.96154 5.37413 2.82867 3.75524 4C3.37063 4.27972 3.02098 4.57342 2.71678 4.87412C1.04545 6.54196 0.0104895 8.84266 0 11.3846V11.4371C0 11.521 0 11.6014 0.0034965 11.6853V11.6888C0.146853 16.6643 4.22378 20.6538 9.23427 20.6538C9.4965 20.6538 9.75524 20.6434 10.0105 20.6224V20.6259C12.2378 20.3881 14.2238 19.3601 15.6923 17.8287Z" fill="#00AEEF"/>
<path d="M57.8322 2.16434C53.4615 2.16434 49.9231 5.72028 49.9231 10.1154C49.9231 10.2797 49.9301 10.4476 49.9405 10.6084V26.7832L50.6783 27.458V14.7028H50.6958C50.7412 14.5664 50.8706 14.4685 51.028 14.4685C51.1853 14.4685 51.3147 14.5664 51.3601 14.7028H51.3741C51.3741 14.7063 51.3776 14.7098 51.3776 14.7098V28.3636H51.4126L52.1503 27.6364L53.3916 26.1504V25.4476L52.7867 24.9091L53.1224 24.1049V23.5L52.6853 23.2972L52.6538 22.1573L53.1224 21.7203V20.7832L52.5175 20.3462V19.5804L53.6923 18.8741V16.8881C54.8986 17.6329 56.3147 18.0629 57.8322 18.0629C62.1958 18.0629 65.7343 14.5 65.7343 10.1119C65.7343 5.72028 62.1923 2.16434 57.8322 2.16434ZM57.8322 14.8007C55.2552 14.8007 53.1678 12.7063 53.1678 10.1154C53.1678 7.52448 55.2552 5.41958 57.8322 5.41958C60.4056 5.41958 62.4895 7.52098 62.4895 10.1119C62.4895 12.7028 60.4056 14.8007 57.8322 14.8007Z" fill="#00AEEF"/>
</g>
<g clip-path="url(#clip1_3_15)">
<path d="M83.4063 5.9732L80.2838 2.9866H71.3287V25.6847H100V5.9732H83.4063ZM72.5233 24.4901V4.18124H79.8043L82.9268 7.16784H98.8054V24.4901H72.5233Z" fill="#00AEEF"/>
<path d="M76.4171 16.6524V10.7469H78.6452C79.1017 10.7469 79.4847 10.8257 79.7941 10.9833C80.1055 11.141 80.3405 11.362 80.4991 11.6465C80.6596 11.9291 80.7399 12.2588 80.7399 12.6356C80.7399 13.0143 80.6587 13.343 80.4962 13.6218C80.3357 13.8986 80.0987 14.1129 79.7854 14.2648C79.4721 14.4147 79.0872 14.4897 78.6307 14.4897H77.0438V13.6016H78.4857C78.7526 13.6016 78.9711 13.5651 79.1413 13.492C79.3115 13.417 79.4373 13.3084 79.5185 13.1662C79.6017 13.022 79.6433 12.8451 79.6433 12.6356C79.6433 12.4261 79.6017 12.2473 79.5185 12.0993C79.4353 11.9493 79.3086 11.8359 79.1384 11.759C78.9682 11.6802 78.7487 11.6408 78.4799 11.6408H77.4935V16.6524H76.4171ZM79.4866 13.9764L80.9575 16.6524H79.7564L78.3116 13.9764H79.4866Z" fill="#00AEEF"/>
<path d="M81.7307 16.6524V10.7469H85.5951V11.6437H82.807V13.2469H85.3949V14.1437H82.807V15.7556H85.6183V16.6524H81.7307Z" fill="#00AEEF"/>
<path d="M86.6932 16.6524V10.7469H88.9213C89.3778 10.7469 89.7607 10.8315 90.0702 11.0006C90.3816 11.1698 90.6166 11.4024 90.7752 11.6984C90.9357 11.9926 91.016 12.3271 91.016 12.7019C91.016 13.0806 90.9357 13.417 90.7752 13.7112C90.6146 14.0053 90.3777 14.2369 90.0644 14.4061C89.7511 14.5733 89.3652 14.657 88.9068 14.657H87.4301V13.7775H88.7617C89.0287 13.7775 89.2472 13.7313 89.4174 13.6391C89.5876 13.5468 89.7133 13.4199 89.7946 13.2584C89.8777 13.097 89.9193 12.9115 89.9193 12.7019C89.9193 12.4924 89.8777 12.3078 89.7946 12.1483C89.7133 11.9887 89.5867 11.8647 89.4145 11.7763C89.2443 11.686 89.0248 11.6408 88.7559 11.6408H87.7695V16.6524H86.6932Z" fill="#00AEEF"/>
<path d="M97.2601 13.6996C97.2601 14.3359 97.1402 14.8809 96.9003 15.3346C96.6624 15.7863 96.3375 16.1324 95.9255 16.3727C95.5155 16.613 95.0503 16.7331 94.5301 16.7331C94.0098 16.7331 93.5437 16.613 93.1317 16.3727C92.7216 16.1304 92.3967 15.7835 92.1569 15.3317C91.919 14.878 91.8 14.334 91.8 13.6996C91.8 13.0633 91.919 12.5193 92.1569 12.0675C92.3967 11.6139 92.7216 11.2669 93.1317 11.0266C93.5437 10.7863 94.0098 10.6661 94.5301 10.6661C95.0503 10.6661 95.5155 10.7863 95.9255 11.0266C96.3375 11.2669 96.6624 11.6139 96.9003 12.0675C97.1402 12.5193 97.2601 13.0633 97.2601 13.6996ZM96.1779 13.6996C96.1779 13.2517 96.1073 12.874 95.9662 12.5664C95.8269 12.2569 95.6335 12.0233 95.3859 11.8657C95.1383 11.7061 94.8531 11.6264 94.5301 11.6264C94.2071 11.6264 93.9218 11.7061 93.6742 11.8657C93.4266 12.0233 93.2323 12.2569 93.0911 12.5664C92.9518 12.874 92.8822 13.2517 92.8822 13.6996C92.8822 14.1475 92.9518 14.5262 93.0911 14.8357C93.2323 15.1433 93.4266 15.3769 93.6742 15.5364C93.9218 15.6941 94.2071 15.7729 94.5301 15.7729C94.8531 15.7729 95.1383 15.6941 95.3859 15.5364C95.6335 15.3769 95.8269 15.1433 95.9662 14.8357C96.1073 14.5262 96.1779 14.1475 96.1779 13.6996Z" fill="#00AEEF"/>
<path d="M96.4161 21.5035H82.6777V22.6981H96.4161V21.5035Z" fill="#00AEEF"/>
<path d="M96.4161 18.5169H88.6509V19.7115H96.4161V18.5169Z" fill="#00AEEF"/>
</g>
<defs>
<clipPath id="clip0_3_15">
<rect width="65.7343" height="26.5734" fill="white" transform="translate(0 2.0979)"/>
</clipPath>
<clipPath id="clip1_3_15">
<rect width="28.6713" height="28.6713" fill="white" transform="translate(71.3287)"/>
</clipPath>
</defs>
</svg>
