<svg width="286" height="82" viewBox="0 0 286 82" fill="none" xmlns="http://www.w3.org/2000/svg">
<g clip-path="url(#clip0_3_15)">
<path d="M112.04 6.10997C111.99 6.09997 111.94 6.10997 111.89 6.10997C111.85 6.10997 111.81 6.10997 111.76 6.10997V6.11997C104.24 6.20997 97.32 10.03 93.21 14.24C95.77 17.43 97.66 21.16 98.7 25.23C100.86 21.34 106.44 16.95 112 17.18C120.35 17.27 127.27 24.06 127.27 32.42V32.52C127.22 40.9 120.41 47.66 112.03 47.66C103.64 47.66 96.84 40.9 96.79 32.52V32.42C96.79 26.38 94.75 20.82 91.33 16.38C86.53 10.13 78.98 6.10997 70.49 6.10997C55.97 6.10997 44.21 17.86 44.17 32.37V32.52C44.2 39.76 47.15 46.32 51.91 51.06C56.67 55.8 65.37 59.92 73.29 58.79V58.73C79.45 57.97 84.95 55.09 89.04 50.83C86.45 47.66 84.52 43.95 83.44 39.89C81.29 43.85 77.43 46.75 72.84 47.6V47.67C63.04 49.08 55.29 40.77 55.24 32.52C55.27 28.34 56.98 24.55 59.74 21.81C62.49 19.07 66.28 17.38 70.48 17.38C78.9 17.38 85.72 24 85.72 32.42V32.43C85.72 32.46 85.72 32.5 85.72 32.53C85.74 38.62 87.83 44.23 91.33 48.68C96.14 54.81 103.63 58.75 112.03 58.75C126.56 58.75 138.35 47.17 138.35 32.63V32.43C138.36 17.98 126.45 6.25997 112.04 6.10997Z" fill="#00AEEF"/>
<path d="M44.88 50.99C42.28 47.82 40.34 44.09 39.26 40.01C37.1 43.98 33.23 46.73 28.64 47.59C27.91 47.69 27.17 47.75 26.41 47.75C22.2 47.75 18.39 46.05 15.63 43.3C12.87 40.55 11.15 36.75 11.12 32.55C11.18 24.27 18.94 15.92 28.79 17.34C28.94 17.36 29.09 17.38 29.24 17.41C33.27 18.48 36.63 21.01 38.59 24.52C39.67 20.54 41.61 16.9 44.21 13.8C40 9.53 34.31 6.66 27.95 6V6.05V6.06C21.82 5.61 15.37 8.09 10.74 11.44C9.64 12.24 8.64 13.08 7.77 13.94C2.99 18.71 0.03 25.29 0 32.56V32.71C0 32.95 0 33.18 0.01 33.42V33.43C0.42 47.66 12.08 59.07 26.41 59.07C27.16 59.07 27.9 59.04 28.63 58.98V58.99C35 58.31 40.68 55.37 44.88 50.99Z" fill="#00AEEF"/>
<path d="M165.4 6.19C152.9 6.19 142.78 16.36 142.78 28.93C142.78 29.4 142.8 29.88 142.83 30.34V76.6L144.94 78.53V42.05H144.99C145.12 41.66 145.49 41.38 145.94 41.38C146.39 41.38 146.76 41.66 146.89 42.05H146.93C146.93 42.06 146.94 42.07 146.94 42.07V81.12H147.04L149.15 79.04L152.7 74.79V72.78L150.97 71.24L151.93 68.94V67.21L150.68 66.63L150.59 63.37L151.93 62.12V59.44L150.2 58.19V56L153.56 53.98V48.3C157.01 50.43 161.06 51.66 165.4 51.66C177.88 51.66 188 41.47 188 28.92C188 16.36 177.87 6.19 165.4 6.19ZM165.4 42.33C158.03 42.33 152.06 36.34 152.06 28.93C152.06 21.52 158.03 15.5 165.4 15.5C172.76 15.5 178.72 21.51 178.72 28.92C178.72 36.33 172.76 42.33 165.4 42.33Z" fill="#00AEEF"/>
</g>
<path d="M238.542 17.0833L229.612 8.54166H204V73.4583H286V17.0833H238.542ZM207.417 70.0417V11.9583H228.24L237.171 20.5H282.583V70.0417H207.417Z" fill="#00AEEF"/>
<path d="M218.553 47.6257V30.736H224.925C226.231 30.736 227.326 30.9614 228.211 31.4123C229.102 31.8631 229.774 32.4954 230.227 33.3091C230.687 34.1173 230.916 35.0601 230.916 36.1377C230.916 37.2208 230.684 38.161 230.219 38.9582C229.76 39.7499 229.082 40.3629 228.186 40.7973C227.29 41.2261 226.189 41.4405 224.884 41.4405H220.345V38.9005H224.469C225.232 38.9005 225.857 38.796 226.344 38.5871C226.831 38.3727 227.191 38.062 227.423 37.6552C227.661 37.2428 227.78 36.737 227.78 36.1377C227.78 35.5385 227.661 35.0272 227.423 34.6038C227.185 34.175 226.823 33.8506 226.336 33.6307C225.849 33.4053 225.221 33.2926 224.452 33.2926H221.631V47.6257H218.553ZM227.332 39.9726L231.538 47.6257H228.103L223.971 39.9726H227.332Z" fill="#00AEEF"/>
<path d="M233.75 47.6257V30.736H244.802V33.3008H236.828V37.8861H244.229V40.4509H236.828V45.0609H244.868V47.6257H233.75Z" fill="#00AEEF"/>
<path d="M247.942 47.6257V30.736H254.315C255.62 30.736 256.716 30.9779 257.601 31.4617C258.491 31.9456 259.163 32.6108 259.617 33.4575C260.076 34.2987 260.306 35.2553 260.306 36.3274C260.306 37.4105 260.076 38.3727 259.617 39.2139C259.158 40.055 258.48 40.7175 257.584 41.2014C256.688 41.6797 255.584 41.9188 254.273 41.9188H250.05V39.4035H253.859C254.622 39.4035 255.247 39.2716 255.734 39.0077C256.221 38.7438 256.58 38.3809 256.812 37.9191C257.05 37.4573 257.169 36.9267 257.169 36.3274C257.169 35.7282 257.05 35.2003 256.812 34.744C256.58 34.2877 256.218 33.9331 255.725 33.6802C255.239 33.4218 254.611 33.2926 253.842 33.2926H251.021V47.6257H247.942Z" fill="#00AEEF"/>
<path d="M278.164 39.1809C278.164 41.0007 277.821 42.5594 277.135 43.8569C276.455 45.1489 275.525 46.1385 274.347 46.8258C273.174 47.513 271.844 47.8566 270.356 47.8566C268.868 47.8566 267.535 47.513 266.357 46.8258C265.184 46.133 264.255 45.1406 263.569 43.8486C262.888 42.5511 262.548 40.9952 262.548 39.1809C262.548 37.361 262.888 35.8051 263.569 34.5131C264.255 33.2156 265.184 32.2232 266.357 31.536C267.535 30.8487 268.868 30.5051 270.356 30.5051C271.844 30.5051 273.174 30.8487 274.347 31.536C275.525 32.2232 276.455 33.2156 277.135 34.5131C277.821 35.8051 278.164 37.361 278.164 39.1809ZM275.069 39.1809C275.069 37.8998 274.867 36.8195 274.463 35.9398C274.065 35.0547 273.512 34.3867 272.804 33.9358C272.096 33.4795 271.28 33.2513 270.356 33.2513C269.432 33.2513 268.616 33.4795 267.908 33.9358C267.2 34.3867 266.644 35.0547 266.24 35.9398C265.842 36.8195 265.643 37.8998 265.643 39.1809C265.643 40.4619 265.842 41.545 266.24 42.4302C266.644 43.3098 267.2 43.9778 267.908 44.4342C268.616 44.885 269.432 45.1104 270.356 45.1104C271.28 45.1104 272.096 44.885 272.804 44.4342C273.512 43.9778 274.065 43.3098 274.463 42.4302C274.867 41.545 275.069 40.4619 275.069 39.1809Z" fill="#00AEEF"/>
<path d="M275.75 61.5H236.458V64.9167H275.75V61.5Z" fill="#00AEEF"/>
<path d="M275.75 52.9583H253.542V56.375H275.75V52.9583Z" fill="#00AEEF"/>
<defs>
<clipPath id="clip0_3_15">
<rect width="188" height="76" fill="white" transform="translate(0 6)"/>
</clipPath>
</defs>
</svg>
